<svg width="984" height="253" viewBox="0 0 984 253" fill="none" xmlns="http://www.w3.org/2000/svg">
<mask id="path-1-outside-1_6_112" maskUnits="userSpaceOnUse" x="-4" y="-4" width="992" height="261" fill="black">
<rect fill="white" x="-4" y="-4" width="992" height="261"/>
<path d="M0.617579 3.99998H39.1176V249H0.617579V3.99998ZM118.002 252.5C99.3349 252.5 85.2182 247.25 75.6516 236.75C66.0849 226.017 61.3016 210.733 61.3016 190.9V176.9H97.7016V193.7C97.7016 209.567 104.352 217.5 117.652 217.5C124.185 217.5 129.085 215.633 132.352 211.9C135.852 207.933 137.602 201.633 137.602 193C137.602 182.733 135.268 173.75 130.602 166.05C125.935 158.117 117.302 148.667 104.702 137.7C88.8349 123.7 77.7516 111.1 71.4516 99.9C65.1516 88.4667 62.0016 75.6333 62.0016 61.4C62.0016 42.0333 66.9016 27.1 76.7016 16.6C86.5016 5.86665 100.735 0.499987 119.402 0.499987C137.835 0.499987 151.718 5.86665 161.052 16.6C170.618 27.1 175.402 42.2667 175.402 62.1V72.25H139.002V59.65C139.002 51.25 137.368 45.1833 134.102 41.45C130.835 37.4833 126.052 35.5 119.752 35.5C106.918 35.5 100.502 43.3167 100.502 58.95C100.502 67.8167 102.835 76.1 107.502 83.8C112.402 91.5 121.152 100.833 133.752 111.8C149.852 125.8 160.935 138.517 167.002 149.95C173.068 161.383 176.102 174.8 176.102 190.2C176.102 210.267 171.085 225.667 161.052 236.4C151.252 247.133 136.902 252.5 118.002 252.5ZM228.276 39H188.026V3.99998H307.026V39H266.776V249H228.276V39ZM339.352 3.99998H391.502L431.402 249H392.902L385.902 200.35V201.05H342.152L335.152 249H299.452L339.352 3.99998ZM381.352 167.8L364.202 46.7H363.502L346.702 167.8H381.352ZM450.08 3.99998H498.38L535.83 150.65H536.53V3.99998H570.83V249H531.28L485.08 70.15H484.38V249H450.08V3.99998ZM599.446 3.99998H657.546C677.379 3.99998 691.846 8.66665 700.946 18C710.046 27.1 714.596 41.2167 714.596 60.35V70.15C714.596 82.75 712.496 93.0167 708.296 100.95C704.329 108.883 698.146 114.6 689.746 118.1V118.8C708.879 125.333 718.446 142.367 718.446 169.9V190.9C718.446 209.8 713.429 224.267 703.396 234.3C693.596 244.1 679.129 249 659.996 249H599.446V3.99998ZM652.996 103.75C660.696 103.75 666.412 101.767 670.146 97.8C674.112 93.8333 676.096 87.1833 676.096 77.85V64.2C676.096 55.3333 674.462 48.9167 671.196 44.95C668.162 40.9833 663.262 39 656.496 39H637.946V103.75H652.996ZM659.996 214C666.762 214 671.779 212.25 675.046 208.75C678.312 205.017 679.946 198.717 679.946 189.85V168.5C679.946 157.3 677.962 149.6 673.996 145.4C670.262 140.967 663.962 138.75 655.096 138.75H637.946V214H659.996ZM796.95 252.5C778.283 252.5 764.05 247.25 754.25 236.75C744.45 226.017 739.55 210.733 739.55 190.9V3.99998H778.05V193.7C778.05 202.1 779.683 208.167 782.95 211.9C786.45 215.633 791.35 217.5 797.65 217.5C803.95 217.5 808.733 215.633 812 211.9C815.5 208.167 817.25 202.1 817.25 193.7V3.99998H854.35V190.9C854.35 210.733 849.45 226.017 839.65 236.75C829.85 247.25 815.616 252.5 796.95 252.5ZM881.77 3.99998H920.27V214H983.62V249H881.77V3.99998Z"/>
</mask>
<path d="M0.617579 3.99998V-1.52588e-05H-3.38242V3.99998H0.617579ZM39.1176 3.99998H43.1176V-1.52588e-05H39.1176V3.99998ZM39.1176 249V253H43.1176V249H39.1176ZM0.617579 249H-3.38242V253H0.617579V249ZM0.617579 7.99998H39.1176V-1.52588e-05H0.617579V7.99998ZM35.1176 3.99998V249H43.1176V3.99998H35.1176ZM39.1176 245H0.617579V253H39.1176V245ZM4.61758 249V3.99998H-3.38242V249H4.61758ZM75.6516 236.75L72.6655 239.411L72.6801 239.428L72.6948 239.444L75.6516 236.75ZM61.3016 176.9V172.9H57.3016V176.9H61.3016ZM97.7016 176.9H101.702V172.9H97.7016V176.9ZM132.352 211.9L129.352 209.254L129.347 209.26L129.341 209.266L132.352 211.9ZM130.602 166.05L127.154 168.078L127.167 168.101L127.181 168.123L130.602 166.05ZM104.702 137.7L102.055 140.699L102.065 140.708L102.075 140.717L104.702 137.7ZM71.4516 99.9L67.9482 101.83L67.9567 101.846L67.9653 101.861L71.4516 99.9ZM76.7016 16.6L79.6258 19.3293L79.6407 19.3132L79.6555 19.2971L76.7016 16.6ZM161.052 16.6L158.033 19.2247L158.064 19.2597L158.095 19.2939L161.052 16.6ZM175.402 72.25V76.25H179.402V72.25H175.402ZM139.002 72.25H135.002V76.25H139.002V72.25ZM134.102 41.45L131.014 43.9928L131.052 44.039L131.091 44.084L134.102 41.45ZM107.502 83.8L104.081 85.8732L104.103 85.9106L104.127 85.9475L107.502 83.8ZM133.752 111.8L131.125 114.817L131.127 114.818L133.752 111.8ZM167.002 149.95L163.468 151.825L167.002 149.95ZM161.052 236.4L158.129 233.668L158.113 233.686L158.098 233.703L161.052 236.4ZM118.002 248.5C100.088 248.5 87.198 243.484 78.6083 234.056L72.6948 239.444C83.2385 251.016 98.5821 256.5 118.002 256.5V248.5ZM78.6376 234.089C69.936 224.326 65.3016 210.125 65.3016 190.9H57.3016C57.3016 211.341 62.2338 227.708 72.6655 239.411L78.6376 234.089ZM65.3016 190.9V176.9H57.3016V190.9H65.3016ZM61.3016 180.9H97.7016V172.9H61.3016V180.9ZM93.7016 176.9V193.7H101.702V176.9H93.7016ZM93.7016 193.7C93.7016 202.095 95.446 209.136 99.6236 214.12C103.914 219.239 110.182 221.5 117.652 221.5V213.5C111.822 213.5 108.114 211.795 105.755 208.98C103.282 206.031 101.702 201.172 101.702 193.7H93.7016ZM117.652 221.5C124.951 221.5 131.113 219.39 135.362 214.534L129.341 209.266C127.057 211.877 123.419 213.5 117.652 213.5V221.5ZM135.351 214.546C139.796 209.509 141.602 202.031 141.602 193H133.602C133.602 201.236 131.907 206.358 129.352 209.254L135.351 214.546ZM141.602 193C141.602 182.107 139.119 172.386 134.022 163.977L127.181 168.123C131.418 175.114 133.602 183.36 133.602 193H141.602ZM134.049 164.022C129.054 155.529 120.033 145.741 107.328 134.683L102.075 140.717C114.57 151.592 122.816 160.704 127.154 168.078L134.049 164.022ZM107.348 134.701C91.6294 120.831 80.9219 108.577 74.9379 97.9389L67.9653 101.861C74.5813 113.623 86.0404 126.569 102.055 140.699L107.348 134.701ZM74.9549 97.9696C69.0096 87.1799 66.0016 75.0208 66.0016 61.4H58.0016C58.0016 76.2458 61.2935 89.7534 67.9482 101.83L74.9549 97.9696ZM66.0016 61.4C66.0016 42.687 70.7285 28.8621 79.6258 19.3293L73.7773 13.8707C63.0746 25.3379 58.0016 41.3796 58.0016 61.4H66.0016ZM79.6555 19.2971C88.4956 9.61507 101.519 4.49998 119.402 4.49998V-3.50002C99.9503 -3.50002 84.5075 2.11824 73.7476 13.9029L79.6555 19.2971ZM119.402 4.49998C137.043 4.49998 149.67 9.60762 158.033 19.2247L164.07 13.9753C153.766 2.12569 138.627 -3.50002 119.402 -3.50002V4.49998ZM158.095 19.2939C166.764 28.8094 171.402 42.8676 171.402 62.1H179.402C179.402 41.6657 174.472 25.3906 164.008 13.906L158.095 19.2939ZM171.402 62.1V72.25H179.402V62.1H171.402ZM175.402 68.25H139.002V76.25H175.402V68.25ZM143.002 72.25V59.65H135.002V72.25H143.002ZM143.002 59.65C143.002 50.9 141.331 43.6382 137.112 38.816L131.091 44.084C133.405 46.7284 135.002 51.6 135.002 59.65H143.002ZM137.189 38.9072C132.992 33.811 126.95 31.5 119.752 31.5V39.5C125.153 39.5 128.677 41.1556 131.014 43.9928L137.189 38.9072ZM119.752 31.5C112.487 31.5 106.388 33.7505 102.222 38.8245C98.1812 43.7474 96.5016 50.6875 96.5016 58.95H104.502C104.502 51.5791 106.03 46.7943 108.406 43.9005C110.657 41.1578 114.183 39.5 119.752 39.5V31.5ZM96.5016 58.95C96.5016 68.5595 99.0414 77.5582 104.081 85.8732L110.922 81.7268C106.628 74.6418 104.502 67.0738 104.502 58.95H96.5016ZM104.127 85.9475C109.338 94.1367 118.433 103.77 131.125 114.817L136.378 108.783C123.87 97.8962 115.465 88.8633 110.876 81.6525L104.127 85.9475ZM131.127 114.818C147.065 128.678 157.733 141.016 163.468 151.825L170.535 148.075C164.137 136.017 152.638 122.922 136.376 108.782L131.127 114.818ZM163.468 151.825C169.175 162.581 172.102 175.33 172.102 190.2H180.102C180.102 174.27 176.961 160.186 170.535 148.075L163.468 151.825ZM172.102 190.2C172.102 209.629 167.25 223.911 158.129 233.668L163.974 239.132C174.92 227.422 180.102 210.905 180.102 190.2H172.102ZM158.098 233.703C149.267 243.375 136.135 248.5 118.002 248.5V256.5C137.669 256.5 153.236 250.892 164.006 239.097L158.098 233.703ZM228.276 39H232.276V35H228.276V39ZM188.026 39H184.026V43H188.026V39ZM188.026 3.99998V-1.52588e-05H184.026V3.99998H188.026ZM307.026 3.99998H311.026V-1.52588e-05H307.026V3.99998ZM307.026 39V43H311.026V39H307.026ZM266.776 39V35H262.776V39H266.776ZM266.776 249V253H270.776V249H266.776ZM228.276 249H224.276V253H228.276V249ZM228.276 35H188.026V43H228.276V35ZM192.026 39V3.99998H184.026V39H192.026ZM188.026 7.99998H307.026V-1.52588e-05H188.026V7.99998ZM303.026 3.99998V39H311.026V3.99998H303.026ZM307.026 35H266.776V43H307.026V35ZM262.776 39V249H270.776V39H262.776ZM266.776 245H228.276V253H266.776V245ZM232.276 249V39H224.276V249H232.276ZM339.352 3.99998V-1.52588e-05H335.951L335.404 3.35703L339.352 3.99998ZM391.502 3.99998L395.45 3.35703L394.903 -1.52588e-05H391.502V3.99998ZM431.402 249V253H436.106L435.35 248.357L431.402 249ZM392.902 249L388.943 249.57L389.436 253H392.902V249ZM385.902 200.35L389.861 199.78L381.902 200.35H385.902ZM385.902 201.05V205.05H389.902V201.05H385.902ZM342.152 201.05V197.05H338.694L338.194 200.472L342.152 201.05ZM335.152 249V253H338.61L339.11 249.578L335.152 249ZM299.452 249L295.504 248.357L294.748 253H299.452V249ZM381.352 167.8V171.8H385.958L385.312 167.239L381.352 167.8ZM364.202 46.7L368.162 46.1391L367.675 42.7H364.202V46.7ZM363.502 46.7V42.7H360.019L359.54 46.1503L363.502 46.7ZM346.702 167.8L342.74 167.25L342.109 171.8H346.702V167.8ZM339.352 7.99998H391.502V-1.52588e-05H339.352V7.99998ZM387.554 4.64294L427.454 249.643L435.35 248.357L395.45 3.35703L387.554 4.64294ZM431.402 245H392.902V253H431.402V245ZM396.861 248.43L389.861 199.78L381.943 200.92L388.943 249.57L396.861 248.43ZM381.902 200.35V201.05H389.902V200.35H381.902ZM385.902 197.05H342.152V205.05H385.902V197.05ZM338.194 200.472L331.194 248.422L339.11 249.578L346.11 201.628L338.194 200.472ZM335.152 245H299.452V253H335.152V245ZM303.4 249.643L343.3 4.64294L335.404 3.35703L295.504 248.357L303.4 249.643ZM385.312 167.239L368.162 46.1391L360.241 47.2609L377.391 168.361L385.312 167.239ZM364.202 42.7H363.502V50.7H364.202V42.7ZM359.54 46.1503L342.74 167.25L350.664 168.35L367.464 47.2496L359.54 46.1503ZM346.702 171.8H381.352V163.8H346.702V171.8ZM450.08 3.99998V-1.52588e-05H446.08V3.99998H450.08ZM498.38 3.99998L502.256 3.01027L501.487 -1.52588e-05H498.38V3.99998ZM535.83 150.65L531.955 151.64L532.724 154.65H535.83V150.65ZM536.53 150.65V154.65H540.53V150.65H536.53ZM536.53 3.99998V-1.52588e-05H532.53V3.99998H536.53ZM570.83 3.99998H574.83V-1.52588e-05H570.83V3.99998ZM570.83 249V253H574.83V249H570.83ZM531.28 249L527.408 250L528.182 253H531.28V249ZM485.08 70.15L488.953 69.1496L488.178 66.15H485.08V70.15ZM484.38 70.15V66.15H480.38V70.15H484.38ZM484.38 249V253H488.38V249H484.38ZM450.08 249H446.08V253H450.08V249ZM450.08 7.99998H498.38V-1.52588e-05H450.08V7.99998ZM494.505 4.9897L531.955 151.64L539.706 149.66L502.256 3.01027L494.505 4.9897ZM535.83 154.65H536.53V146.65H535.83V154.65ZM540.53 150.65V3.99998H532.53V150.65H540.53ZM536.53 7.99998H570.83V-1.52588e-05H536.53V7.99998ZM566.83 3.99998V249H574.83V3.99998H566.83ZM570.83 245H531.28V253H570.83V245ZM535.153 248L488.953 69.1496L481.208 71.1504L527.408 250L535.153 248ZM485.08 66.15H484.38V74.15H485.08V66.15ZM480.38 70.15V249H488.38V70.15H480.38ZM484.38 245H450.08V253H484.38V245ZM454.08 249V3.99998H446.08V249H454.08ZM599.446 3.99998V-1.52588e-05H595.446V3.99998H599.446ZM700.946 18L698.082 20.7924L698.099 20.8105L698.117 20.8284L700.946 18ZM708.296 100.95L704.761 99.0784L704.739 99.1196L704.718 99.1611L708.296 100.95ZM689.746 118.1L688.207 114.408L685.746 115.433V118.1H689.746ZM689.746 118.8H685.746V121.661L688.453 122.585L689.746 118.8ZM703.396 234.3L706.224 237.128L703.396 234.3ZM599.446 249H595.446V253H599.446V249ZM670.146 97.8L667.317 94.9716L667.274 95.0144L667.233 95.0585L670.146 97.8ZM671.196 44.95L668.018 47.3798L668.062 47.4371L668.108 47.4928L671.196 44.95ZM637.946 39V35H633.946V39H637.946ZM637.946 103.75H633.946V107.75H637.946V103.75ZM675.046 208.75L677.97 211.479L678.014 211.432L678.056 211.384L675.046 208.75ZM673.996 145.4L670.936 147.977L671.009 148.064L671.088 148.146L673.996 145.4ZM637.946 138.75V134.75H633.946V138.75H637.946ZM637.946 214H633.946V218H637.946V214ZM599.446 7.99998H657.546V-1.52588e-05H599.446V7.99998ZM657.546 7.99998C676.855 7.99998 690.049 12.5541 698.082 20.7924L703.81 15.2076C693.642 4.77923 677.903 -1.52588e-05 657.546 -1.52588e-05V7.99998ZM698.117 20.8284C706.169 28.8806 710.596 41.7654 710.596 60.35H718.596C718.596 40.6679 713.922 25.3193 703.774 15.1716L698.117 20.8284ZM710.596 60.35V70.15H718.596V60.35H710.596ZM710.596 70.15C710.596 82.3458 708.557 91.9071 704.761 99.0784L711.831 102.822C716.434 94.1262 718.596 83.1542 718.596 70.15H710.596ZM704.718 99.1611C701.193 106.212 695.746 111.266 688.207 114.408L691.284 121.792C700.545 117.934 707.465 111.555 711.873 102.739L704.718 99.1611ZM685.746 118.1V118.8H693.746V118.1H685.746ZM688.453 122.585C697.124 125.546 703.5 130.808 707.783 138.434C712.121 146.157 714.446 156.554 714.446 169.9H722.446C722.446 155.713 719.987 143.826 714.758 134.516C709.475 125.109 701.501 118.587 691.038 115.015L688.453 122.585ZM714.446 169.9V190.9H722.446V169.9H714.446ZM714.446 190.9C714.446 209.103 709.627 222.412 700.567 231.472L706.224 237.128C717.231 226.122 722.446 210.497 722.446 190.9H714.446ZM700.567 231.472C691.766 240.273 678.48 245 659.996 245V253C679.778 253 695.426 247.927 706.224 237.128L700.567 231.472ZM659.996 245H599.446V253H659.996V245ZM603.446 249V3.99998H595.446V249H603.446ZM652.996 107.75C661.333 107.75 668.3 105.597 673.059 100.541L667.233 95.0585C664.524 97.9364 660.058 99.75 652.996 99.75V107.75ZM672.974 100.628C678.058 95.5446 680.096 87.5779 680.096 77.85H672.096C672.096 86.7888 670.167 92.1221 667.317 94.9716L672.974 100.628ZM680.096 77.85V64.2H672.096V77.85H680.096ZM680.096 64.2C680.096 55.0158 678.437 47.4506 674.283 42.4072L668.108 47.4928C670.488 50.3827 672.096 55.6509 672.096 64.2H680.096ZM674.373 42.5202C670.335 37.2392 664.033 35 656.496 35V43C662.492 43 665.99 44.7275 668.018 47.3798L674.373 42.5202ZM656.496 35H637.946V43H656.496V35ZM633.946 39V103.75H641.946V39H633.946ZM637.946 107.75H652.996V99.75H637.946V107.75ZM659.996 218C667.403 218 673.677 216.078 677.97 211.479L672.121 206.021C669.881 208.422 666.122 210 659.996 210V218ZM678.056 211.384C682.301 206.533 683.946 199 683.946 189.85H675.946C675.946 198.434 674.324 203.501 672.035 206.116L678.056 211.384ZM683.946 189.85V168.5H675.946V189.85H683.946ZM683.946 168.5C683.946 157.117 681.989 148.038 676.904 142.654L671.088 148.146C673.936 151.162 675.946 157.483 675.946 168.5H683.946ZM677.055 142.823C672.233 137.097 664.512 134.75 655.096 134.75V142.75C663.412 142.75 668.292 144.836 670.936 147.977L677.055 142.823ZM655.096 134.75H637.946V142.75H655.096V134.75ZM633.946 138.75V214H641.946V138.75H633.946ZM637.946 218H659.996V210H637.946V218ZM754.25 236.75L751.296 239.447L751.31 239.463L751.325 239.479L754.25 236.75ZM739.55 3.99998V-1.52588e-05H735.55V3.99998H739.55ZM778.05 3.99998H782.05V-1.52588e-05H778.05V3.99998ZM782.95 211.9L779.939 214.534L779.984 214.586L780.031 214.636L782.95 211.9ZM812 211.9L809.081 209.164L809.034 209.214L808.989 209.266L812 211.9ZM817.25 3.99998V-1.52588e-05H813.25V3.99998H817.25ZM854.35 3.99998H858.35V-1.52588e-05H854.35V3.99998ZM839.65 236.75L842.574 239.479L842.589 239.463L842.604 239.447L839.65 236.75ZM796.95 248.5C779.042 248.5 766.008 243.486 757.174 234.021L751.325 239.479C762.092 251.014 777.524 256.5 796.95 256.5V248.5ZM757.204 234.053C748.289 224.289 743.55 210.103 743.55 190.9H735.55C735.55 211.364 740.61 227.744 751.296 239.447L757.204 234.053ZM743.55 190.9V3.99998H735.55V190.9H743.55ZM739.55 7.99998H778.05V-1.52588e-05H739.55V7.99998ZM774.05 3.99998V193.7H782.05V3.99998H774.05ZM774.05 193.7C774.05 202.45 775.72 209.712 779.939 214.534L785.96 209.266C783.646 206.622 782.05 201.75 782.05 193.7H774.05ZM780.031 214.636C784.457 219.356 790.518 221.5 797.65 221.5V213.5C792.181 213.5 788.443 211.911 785.868 209.164L780.031 214.636ZM797.65 221.5C804.769 221.5 810.788 219.359 815.01 214.534L808.989 209.266C806.678 211.908 803.131 213.5 797.65 213.5V221.5ZM814.918 214.636C819.442 209.81 821.25 202.502 821.25 193.7H813.25C813.25 201.698 811.557 206.524 809.081 209.164L814.918 214.636ZM821.25 193.7V3.99998H813.25V193.7H821.25ZM817.25 7.99998H854.35V-1.52588e-05H817.25V7.99998ZM850.35 3.99998V190.9H858.35V3.99998H850.35ZM850.35 190.9C850.35 210.103 845.61 224.289 836.696 234.053L842.604 239.447C853.289 227.744 858.35 211.364 858.35 190.9H850.35ZM836.725 234.021C827.892 243.486 814.858 248.5 796.95 248.5V256.5C816.375 256.5 831.808 251.014 842.574 239.479L836.725 234.021ZM881.77 3.99998V-1.52588e-05H877.77V3.99998H881.77ZM920.27 3.99998H924.27V-1.52588e-05H920.27V3.99998ZM920.27 214H916.27V218H920.27V214ZM983.62 214H987.62V210H983.62V214ZM983.62 249V253H987.62V249H983.62ZM881.77 249H877.77V253H881.77V249ZM881.77 7.99998H920.27V-1.52588e-05H881.77V7.99998ZM916.27 3.99998V214H924.27V3.99998H916.27ZM920.27 218H983.62V210H920.27V218ZM979.62 214V249H987.62V214H979.62ZM983.62 245H881.77V253H983.62V245ZM885.77 249V3.99998H877.77V249H885.77Z" fill="white" mask="url(#path-1-outside-1_6_112)"/>
</svg>
