<svg width="96" height="110" viewBox="0 0 96 110" fill="none" xmlns="http://www.w3.org/2000/svg">
<path d="M0 0H96V85C96 98.8071 84.8071 110 71 110H25C11.1929 110 0 98.8071 0 85V0Z" fill="#2044FF"/>
<path d="M24.837 40.665C25.2883 40.05 25.8828 39.2175 26.3589 38.6225C27.7846 36.9825 27.9696 36.7675 29.267 35.555C29.6518 35.235 30.1082 34.85 30.5546 34.4875C27.2617 37.3125 26.8423 40.44 29.864 42.3725C29.859 42.3725 29.859 42.3725 29.859 42.3775C34.0844 44.9575 43.3442 44.4 50.6503 41.095C57.7271 37.895 60.3393 33.3175 56.8465 30.5975C53.7805 30.015 50.1249 29.9475 46.2573 30.4725L45.8552 29.8L46.1882 28.685C48.4624 28.4775 50.6232 28.5275 52.488 28.85C52.9394 28.9275 53.5338 29.06 53.9778 29.155C54.8362 29.3675 55.3024 29.495 55.8624 29.6775C56.4346 29.85 56.923 30.0225 57.774 30.3425C58.6077 30.675 58.9678 30.825 59.6363 31.1625C60.3849 31.5087 61.1122 31.9002 61.8144 32.335C67.3791 35.8825 63.9184 42.355 54.0987 46.79C44.3061 51.21 31.8274 51.905 26.2355 48.4C26.2331 48.395 26.2257 48.39 26.2109 48.385H26.2207C23.167 46.425 22.8464 43.58 24.837 40.665ZM50.3149 65.465L50.2359 61.48L47.4412 58.33C38.2086 60.45 29.1338 59.995 24.0871 56.9825C24.0698 56.9625 24.0279 56.9425 24.0106 56.9225C21.1543 55.14 20.4488 52.84 20.6634 50.34C19.9949 53.9975 19.9407 55.3175 20.0369 58.4475C20.1553 60.4075 21.2727 62.215 23.5198 63.64L23.537 63.66C28.9168 67.05 40.1252 67.785 50.3149 65.465ZM61.9698 70.0275C48.9385 75.325 32.6291 75.6375 25.5449 70.735C26.3099 72.6299 27.3509 74.3979 28.6331 75.98C35.1352 80.48 50.1052 80.1925 62.061 75.33C69.0589 72.4875 73.4742 68.705 74.6335 65.16L74.9591 64.0925C75.7311 61.3875 75.8767 59.135 76 57.13C75.8594 61.4825 70.8003 66.4325 61.9698 70.0275ZM33.2038 80.23C33.6133 80.625 34.9008 82.2275 41.4251 83.9975C43.1888 84.3925 47.6287 85.66 55.8303 83.8175L55.8796 83.06L55.2309 82.03C47.6213 83.855 39.1681 83.245 33.2038 80.23ZM52.0341 48.7075L58.9629 54.03C58.9629 54.03 60.4454 55.1125 59.0468 55.8725C57.6531 56.625 54.074 58.4675 54.074 58.4675L50.5393 57.13L48.7658 57.93L51.8935 60.6825L51.9182 64.965L53.7558 64.1375L54.9744 60.52C54.9744 60.52 58.7163 59.06 60.2012 58.51C61.6935 57.9725 61.4937 59.8125 61.4937 59.8125L60.7586 68.59L63.2006 67.49L67.2212 55.6475C67.2212 55.6475 69.3524 54.5975 70.8521 53.675C72.3494 52.7525 72.8624 51.2225 72.8624 51.2225C72.8624 51.2225 71.4022 50.585 69.7199 51.0975C68.0377 51.605 65.8448 52.51 65.8448 52.51L54.4687 47.6125L52.0341 48.7075ZM37.3749 31.8675L42.0788 35.665L43.3639 35.47L40.8035 32.0625C40.8035 32.0625 40.2461 31.3575 40.9959 31.19C41.7507 31.02 43.6599 30.625 43.6599 30.625L45.0955 31.7875L46.0624 31.6425L44.9672 29.8775L45.5444 27.92L44.6095 28.0575L43.502 29.5475C43.502 29.5475 41.5583 29.7325 40.7936 29.7975C40.0241 29.8575 40.3546 29.02 40.3546 29.02L41.8296 25L40.5371 25.1925L37.1332 30.215C37.1332 30.215 35.9985 30.425 35.1771 30.6625C34.3533 30.8975 33.9191 31.5425 33.9191 31.5425C33.9191 31.5425 34.5234 32.0375 35.3744 32.02C36.2328 32.0025 37.3749 31.8675 37.3749 31.8675ZM60.623 80.6625L57.5791 79.05L56.8786 79.2975L58.6817 80.9325C58.6817 80.9325 59.0665 81.265 58.662 81.4425C58.2575 81.6175 57.2264 82.0475 57.2264 82.0475L56.3754 81.6625L55.8697 81.8475L56.5777 82.6125L56.5086 83.73L57.0365 83.545L57.4311 82.6375C57.4311 82.6375 58.5017 82.315 58.9284 82.2C59.3526 82.0825 59.2564 82.5875 59.2564 82.5875L58.8544 85L59.5574 84.7525L60.9362 81.5625C60.9362 81.5625 61.5455 81.32 61.9821 81.0975C62.4187 80.875 62.5913 80.465 62.5913 80.465C62.5913 80.465 62.2041 80.25 61.7256 80.3575C61.2446 80.46 60.623 80.6625 60.623 80.6625Z" fill="#F8F8F8"/>
</svg>
